Coordinates
version=1
nRows=9
nColumns=36
inDegrees=yes

Units are S.I. units (second, meters, Newtons, ...)
If the header above contains a line with 'inDegrees', this indicates whether rotational values are in degrees (yes) or radians (no).

endheader
time	pelvis_tilt	pelvis_list	pelvis_rotation	pelvis_tx	pelvis_ty	pelvis_tz	hip_flexion_r	hip_adduction_r	hip_rotation_r	knee_angle_r	knee_angle_r_beta	ankle_angle_r	subtalar_angle_r	mtp_angle_r	hip_flexion_l	hip_adduction_l	hip_rotation_l	knee_angle_l	knee_angle_l_beta	ankle_angle_l	subtalar_angle_l	mtp_angle_l	lumbar_extension	lumbar_bending	lumbar_rotation	arm_flex_r	arm_add_r	arm_rot_r	elbow_flex_r	pro_sup_r	arm_flex_l	arm_add_l	arm_rot_l	elbow_flex_l	pro_sup_l
      1.38000000	      0.99890067	      1.61550178	      4.55399851	     -0.43380650	      1.19415882	     -0.55524105	     15.60852432	     -3.05166354	    -20.22156223	      5.50952051	      0.09615927	    -24.99827087	      4.70610748	     -7.51792422	     15.62523217	     -1.88732166	     -5.37288414	      4.17253342	      0.07282445	    -28.96563223	      1.08093658	     -7.51792422	     -9.21154479	     -2.71207424	    -17.23993526	     55.39935478	    -63.18159485	     36.63738021	    136.19905985	    107.33568320	    -67.91990476	    -26.65595777	    -63.89559890	    124.80940192	     94.91628361
      1.39000000	      1.57920162	      1.54299884	      4.66651536	     -0.42278946	      1.17012991	     -0.55505264	     16.40547121	     -3.53548201	    -20.84913446	      8.75767112	      0.15285020	    -25.67918189	      2.75355288	     -7.51381534	     16.26933679	     -2.23005667	     -4.99253588	      7.10620925	      0.12402675	    -29.83404463	      0.59968718	     -7.51381534	     -9.89032494	     -3.02303430	    -16.70560539	     50.37662649	    -64.37237821	     29.89075974	    137.99566994	    106.44312242	    -67.25621573	    -24.73280230	    -61.97499422	    125.11942899	     94.37148833
      1.40000000	      2.39352473	      1.41153109	      4.73056118	     -0.41209132	      1.14537789	     -0.55489232	     17.12396669	     -3.92411467	    -20.47453899	     12.32850202	      0.21517295	    -27.57770471	      0.91753749	     -7.50946951	     16.97790533	     -2.63825706	     -4.34091154	     10.72530987	      0.18719197	    -31.02146819	      0.66932720	     -7.50946951	    -10.89973384	     -3.21237862	    -16.20173550	     45.35050467	    -64.71203900	     22.90634885	    139.56317600	    106.97954219	    -66.22661145	    -22.64316346	    -60.01684259	    124.93170813	     95.06810672
      1.41000000	      3.28038911	      1.16117433	      4.69181151	     -0.40199214	      1.11980864	     -0.55475535	     18.04517731	     -4.07474167	    -18.73063169	     16.30570258	      0.28458820	    -29.44478173	     -0.49500301	     -7.50802141	     17.85762892	     -3.07282347	     -3.16328419	     14.90258301	      0.26009914	    -32.29403352	     -0.20887325	     -7.50802141	    -11.96886827	     -3.15037553	    -15.78172228	     41.90190321	    -64.09464784	     17.52928022	    140.75731779	    107.58085806	    -64.83859540	    -20.50809851	    -57.76365715	    124.03917194	     96.58693532
      1.42000000	      4.11254066	      0.87285821	      4.48499719	     -0.39226333	      1.09344487	     -0.55431669	     19.18470703	     -3.99996473	    -16.28160484	     21.37891784	      0.37313251	    -26.23508239	     -1.51540434	     -7.50654987	     19.16718569	     -3.63670608	     -2.71606012	     20.60827705	      0.35968229	    -28.55203703	     -1.12317884	     -7.50654987	    -13.04998166	     -3.05325973	    -15.07229986	     38.43798420	    -62.90366549	     12.09116305	    141.96314167	    108.64840379	    -63.10501773	    -18.67551379	    -55.33842571	    122.62032625	     97.93420805
      1.43000000	      4.94958867	      0.65958365	      4.23987662	     -0.38297190	      1.06586398	     -0.55372856	     20.42207072	     -3.84857703	    -13.95928635	     28.27619537	      0.49351271	    -14.38850848	     -2.31650525	     -7.50465310	     20.78220336	     -4.21574286	     -2.92211626	     28.09264089	      0.49030908	    -17.91792891	     -2.70980272	     -7.50465310	    -14.09043568	     -2.96763842	    -14.58950275	     36.89263088	    -60.96574451	      8.84721772	    142.66572216	    110.64332227	    -61.35194726	    -16.93792790	    -53.02092386	    120.53608907	     99.04785595
      1.44000000	      5.77274670	      0.46752523	      4.10443990	     -0.37436266	      1.03773027	     -0.55312460	     21.44964776	     -3.44260180	    -12.05419868	     35.23872815	      0.61503183	      0.25937351	     -2.80067527	     -7.50386939	     22.54134472	     -4.80929461	     -3.11306264	     36.04705828	      0.62913985	     -4.62009532	     -3.13179152	     -7.50386939	    -15.08638212	     -2.84414437	    -14.43035285	     36.78305932	    -58.41380311	      7.72160317	    143.23031442	    107.25392432	    -59.41659826	    -15.18826276	    -50.57088664	    118.51455756	     96.23068363
      1.45000000	      6.14969991	     -0.04104266	      3.94768735	     -0.36732208	      1.01097676	     -0.55220771	     22.74346437	     -2.36618050	    -10.74531009	     40.45928886	      0.70614780	      9.82050220	     -5.06090083	     -7.50330611	     24.78280586	     -5.75000946	     -3.18385609	     43.03711687	      0.75113939	      5.98190330	     -2.24664739	     -7.50330611	    -15.76143299	     -2.41278220	    -13.47119767	     34.71534499	    -55.69710406	      4.21627189	    143.50244013	    109.45592162	    -56.30649510	    -14.29753928	    -47.67361672	    115.53259056	     96.38424330
      1.46000000	      4.77722314	     -0.78319623	      3.64929152	     -0.36240482	      0.98532144	     -0.55147824	     26.26236705	     -0.97605559	     -9.52144145	     44.83008457	      0.78243258	     14.68901651	     -8.61619963	     -7.50277396	     28.93851518	     -6.48153820	     -2.59047345	     48.90897586	      0.85362266	     11.62522910	     -3.75904703	     -7.50277396	    -14.59807384	     -1.74353354	    -11.80851147	     31.78219935	    -52.84611651	      0.44300188	    143.73459287	    111.59476454	    -51.94185235	    -13.93018678	    -43.91392335	    111.23988893	     96.82545729
